<?xml version="1.0" encoding="UTF-8"?>
<!DOCTYPE svg PUBLIC "-//W3C//DTD SVG 1.1//EN" "http://www.w3.org/Graphics/SVG/1.1/DTD/svg11.dtd">
<!-- Creator: CorelDRAW -->
<svg xmlns="http://www.w3.org/2000/svg" xml:space="preserve" width="512px" height="512px" version="1.1" style="shape-rendering:geometricPrecision; text-rendering:geometricPrecision; image-rendering:optimizeQuality; fill-rule:evenodd; clip-rule:evenodd"
viewBox="0 0 512 512"
 xmlns:xlink="http://www.w3.org/1999/xlink"
 xmlns:xodm="http://www.corel.com/coreldraw/odm/2003">
 <defs>
  <style type="text/css">
   <![CDATA[
    .fil4 {fill:#539676}
    .fil1 {fill:#95A5A5}
    .fil0 {fill:#CA8152}
    .fil3 {fill:#DE5540}
    .fil2 {fill:#EAEEF0}
    .fil5 {fill:white}
   ]]>
  </style>
 </defs>
 <g id="Layer_x0020_1">
  <metadata id="CorelCorpID_0Corel-Layer"/>
  <g id="_2023866195792">
   <path class="fil0" d="M441.92 511.99l-371.84 0c-3.87,0 -7,-3.14 -7,-7l0 -497.98c0,-3.87 3.13,-7 7,-7l371.84 0c3.87,0 7,3.13 7,7l0 497.98c0,3.86 -3.13,7 -7,7z"/>
   <path class="fil1" d="M362.47 94.28c-3.86,0 -209.09,0 -212.95,0 -3.86,0 -7,-3.14 -7,-7l0 -45.87c0,-3.87 3.14,-7 7,-7l212.95 0c3.87,0 7,3.13 7,7l0 45.87c0,3.86 -3.13,7 -7,7z"/>
   <path class="fil2" d="M404.66 477.59l-297.32 0c-3.86,0 -7,-3.14 -7,-7l0 -383.31c0,-3.87 3.14,-7 7,-7l297.32 0c3.86,0 7,3.13 7,7l0 383.31c0,3.86 -3.14,7 -7,7z"/>
   <path class="fil3" d="M376.45 157.95l-110.57 0c-3.87,0 -7.01,-3.13 -7.01,-7 0,-3.86 3.14,-7 7.01,-7l110.57 0c3.86,0 7,3.14 7,7 0,3.87 -3.14,7 -7,7z"/>
   <path class="fil3" d="M376.45 187.85l-110.57 0c-3.87,0 -7.01,-3.13 -7.01,-7 0,-3.86 3.14,-7 7.01,-7l110.57 0c3.86,0 7,3.14 7,7 0,3.87 -3.14,7 -7,7z"/>
   <path class="fil3" d="M376.45 270.98l-110.57 0c-3.87,0 -7.01,-3.13 -7.01,-6.99 0,-3.87 3.14,-7 7.01,-7l110.57 0c3.86,0 7,3.13 7,7 0,3.86 -3.14,6.99 -7,6.99z"/>
   <path class="fil3" d="M376.45 300.88l-110.57 0c-3.87,0 -7.01,-3.13 -7.01,-7 0,-3.87 3.14,-7 7.01,-7l110.57 0c3.86,0 7,3.13 7,7 0,3.87 -3.14,7 -7,7z"/>
   <path class="fil3" d="M376.45 384.02l-110.57 0c-3.87,0 -7.01,-3.14 -7.01,-7.01 0,-3.86 3.14,-6.99 7.01,-6.99l110.57 0c3.86,0 7,3.13 7,6.99 0,3.87 -3.14,7.01 -7,7.01z"/>
   <path class="fil3" d="M376.45 413.91l-110.57 0c-3.87,0 -7.01,-3.13 -7.01,-7 0,-3.86 3.14,-7 7.01,-7l110.57 0c3.86,0 7,3.14 7,7 0,3.87 -3.14,7 -7,7z"/>
   <path class="fil4" d="M231.55 215.99l-96 0c-3.86,0 -7,-3.13 -7,-7l0 -86.18c0,-3.86 3.14,-7 7,-7l96 0c3.87,0 7.01,3.14 7.01,7l0 86.18c0,3.87 -3.14,7 -7.01,7z"/>
   <path class="fil4" d="M231.55 329.02l-96 0c-3.86,0 -7,-3.13 -7,-6.99l0 -86.19c0,-3.86 3.14,-7 7,-7l96 0c3.87,0 7.01,3.14 7.01,7l0 86.19c0,3.86 -3.14,6.99 -7.01,6.99z"/>
   <path class="fil4" d="M231.55 442.05l-96 0c-3.86,0 -7,-3.13 -7,-7l0 -86.18c0,-3.87 3.14,-7 7,-7l96 0c3.87,0 7.01,3.13 7.01,7l0 86.18c0,3.87 -3.14,7 -7.01,7z"/>
   <path class="fil5" d="M176.23 183.42c-1.86,0 -3.63,-0.73 -4.95,-2.05l-14.67 -14.67c-2.73,-2.73 -2.73,-7.16 0,-9.9 2.73,-2.73 7.17,-2.73 9.9,0l9.72 9.73 24.37 -24.37c2.73,-2.73 7.16,-2.73 9.89,0 2.74,2.73 2.74,7.16 0,9.9l-29.31 29.31c-1.31,1.32 -3.09,2.05 -4.95,2.05z"/>
   <path class="fil5" d="M176.23 300.59c-1.86,0 -3.63,-0.74 -4.95,-2.05l-14.67 -14.67c-2.73,-2.73 -2.73,-7.17 0,-9.9 2.73,-2.73 7.17,-2.73 9.9,0l9.72 9.72 24.37 -24.36c2.73,-2.74 7.16,-2.74 9.89,-0.01 2.74,2.74 2.74,7.17 0,9.9l-29.31 29.32c-1.31,1.31 -3.09,2.05 -4.95,2.05z"/>
   <path class="fil5" d="M176.23 413.62c-1.86,0 -3.63,-0.74 -4.95,-2.05l-14.67 -14.67c-2.73,-2.73 -2.73,-7.17 0,-9.9 2.73,-2.73 7.17,-2.73 9.9,0l9.72 9.72 24.37 -24.36c2.73,-2.74 7.16,-2.74 9.89,0 2.74,2.73 2.74,7.16 0,9.89l-29.31 29.32c-1.31,1.31 -3.09,2.05 -4.95,2.05z"/>
  </g>
 </g>
</svg>
